<?xml version="1.0" encoding="UTF-8"?>
<svg id="Camada_2" data-name="Camada 2" xmlns="http://www.w3.org/2000/svg" viewBox="0 0 262.32 69.47">
  <defs>
    <style>
      .cls-1 {
        fill: #fff;
      }
    </style>
  </defs>
  <g id="Layer_1" data-name="Layer 1">
    <g>
      <g>
        <polygon class="cls-1" points="220.82 54.44 223.5 54.44 235.67 67.46 235.67 54.44 237.47 54.44 237.47 69.27 234.79 69.27 222.62 56.24 222.62 69.27 220.82 69.27 220.82 54.44"/>
        <rect class="cls-1" x="214.53" y="54.55" width="1.8" height="14.83"/>
        <path class="cls-1" d="M241.8,59.83c0-.94.08-1.76.23-2.45.15-.69.41-1.27.78-1.73.37-.46.85-.81,1.46-1.03.61-.23,1.36-.34,2.27-.34h6.88c.82,0,1.5.1,2.03.3.53.2.96.46,1.28.8.32.33.54.73.67,1.18.13.45.19.92.19,1.41v1.27h-1.58v-.68c0-.63-.08-1.12-.25-1.47-.17-.35-.39-.62-.66-.79-.28-.17-.6-.28-.96-.32-.37-.04-.76-.06-1.17-.06h-6.24c-.43,0-.83.04-1.21.13-.38.09-.71.25-.99.48-.28.23-.5.55-.67.96-.17.41-.25.94-.25,1.58v5.57c0,.64.08,1.17.25,1.58.17.41.39.73.67.96.28.23.61.39.99.48.38.09.78.13,1.21.13h6.3c.6,0,1.1-.04,1.51-.12.4-.08.73-.22.96-.42.24-.2.41-.46.5-.79.1-.33.15-.74.15-1.25v-.92h1.69v1c0,.67-.06,1.26-.18,1.78-.12.52-.34.95-.67,1.3-.33.35-.79.61-1.38.79-.59.18-1.35.27-2.28.27h-6.79c-.9,0-1.66-.11-2.27-.34-.61-.22-1.09-.57-1.46-1.03-.37-.46-.63-1.04-.78-1.73-.15-.69-.23-1.51-.23-2.45v-4.05Z"/>
        <path class="cls-1" d="M262.1,69.32h-1.3c-.12,0-.22-.1-.22-.22v-1.3c0-.12.1-.22.22-.22h1.3c.12,0,.22.1.22.22v1.3c0,.12-.1.22-.22.22"/>
      </g>
      <g>
        <polygon class="cls-1" points="40.65 37.3 58.71 37.3 58.71 69.08 67.6 69.08 67.6 37.3 84.55 37.3 80.38 29.3 40.65 29.3 40.65 37.3"/>
        <rect class="cls-1" x="88.87" y="29.3" width="8.89" height="39.78"/>
        <path class="cls-1" d="M149.52,58.34l.03-.9h-8.58l-.06.8c-.05.58-.13,1.05-.25,1.41-.13.4-.34.69-.64.92-.38.28-.99.51-1.75.64-.96.18-2.2.26-3.68.26h-16.28c-1.01,0-1.96-.09-2.84-.28-.73-.15-1.36-.42-1.87-.81-.48-.35-.85-.85-1.16-1.52-.32-.72-.49-1.72-.49-2.97v-13.42c0-1.25.16-2.25.49-2.97.3-.67.68-1.17,1.16-1.52.52-.38,1.15-.65,1.88-.8.88-.18,1.84-.28,2.84-.28h16.77c1.05,0,2.04.05,2.96.14.71.07,1.31.25,1.81.52.39.22.7.56.96,1.06.16.3.36.9.42,2.01l.04.83h8.28v-1.65c0-1.39-.21-2.74-.61-4.02-.45-1.42-1.24-2.66-2.34-3.7-1.07-1.01-2.47-1.8-4.18-2.37-1.63-.54-3.68-.82-6.09-.82h-18.5c-2.64,0-4.91.31-6.74.92-1.96.65-3.58,1.69-4.8,3.07-1.2,1.36-2.06,3.05-2.55,5.02-.45,1.81-.67,3.96-.67,6.38v9.77c0,2.42.23,4.57.67,6.38.49,1.98,1.35,3.67,2.55,5.02,1.22,1.38,2.84,2.42,4.8,3.08,1.83.61,4.09.92,6.74.92h17.62c2.67,0,4.9-.24,6.65-.71,1.9-.51,3.43-1.31,4.57-2.38,1.17-1.1,1.97-2.49,2.37-4.11.29-1.15.46-2.47.51-3.92"/>
        <g>
          <polygon class="cls-1" points="185.22 29.3 176.28 29.3 196.88 69.08 205.94 69.08 185.22 29.3"/>
          <polygon class="cls-1" points="164.81 61.03 178.83 39.07 174.01 29.64 149.86 69.08 188.75 69.08 184.57 61.03 164.81 61.03"/>
        </g>
        <g>
          <polygon class="cls-1" points="8.89 52.65 37.49 52.65 37.49 44.65 8.89 44.65 8.89 37.31 37.56 37.23 37.56 29.22 0 29.29 0 69.08 37.65 69.08 37.65 61.08 8.89 61.08 8.89 52.65"/>
          <polygon class="cls-1" points="24.4 25.69 11.38 25.62 14.43 20.04 27.29 20.04 24.4 25.69"/>
        </g>
      </g>
      <g>
        <polygon class="cls-1" points="204.54 22.46 190.43 0 184.71 0 198.82 22.46 204.54 22.46"/>
        <polygon class="cls-1" points="218.88 22.46 204.77 0 199.05 0 213.16 22.46 218.88 22.46"/>
        <polygon class="cls-1" points="232.12 22.46 218.01 0 212.29 0 226.4 22.46 232.12 22.46"/>
      </g>
    </g>
  </g>
</svg>