<?xml version="1.0" encoding="UTF-8"?>
<svg id="Camada_2" data-name="Camada 2" xmlns="http://www.w3.org/2000/svg" viewBox="0 0 145.67 143.98">
  <defs>
    <style>
      .cls-1 {
        fill: #fff;
      }
    </style>
  </defs>
  <g id="Layer_1" data-name="Layer 1">
    <g>
      <g>
        <path class="cls-1" d="M18.97,32.28V5.2h107.73v27.07h5.2V4.48c0-2.47-2.01-4.48-4.48-4.48H18.25c-2.47,0-4.48,2.01-4.48,4.48v27.79h5.2Z"/>
        <path class="cls-1" d="M126.7,111.7v27.07H18.97v-27.07h-5.2v27.79c0,2.47,2.01,4.48,4.48,4.48h109.18c2.47,0,4.48-2.01,4.48-4.48v-27.79h-5.2Z"/>
      </g>
      <path class="cls-1" d="M26.81,54.95h-7.21v-6.49h13.32c1.05,7.51-1.7,15.71-9.62,19.31-7.65,3.47-16.49.41-21.13-7.17C-1.9,53.95-.06,44.34,6.16,39.24c6.77-5.55,16.14-4.64,21.19-.17-1.38,1.43-2.74,2.89-4.18,4.26-.19.18-.86.04-1.2-.15-5.35-2.83-11.95-.67-14.44,4.76-2.48,5.38.03,11.84,5.45,14.03,5.5,2.22,11.78-.69,13.71-6.35.06-.17.07-.34.13-.67"/>
      <path class="cls-1" d="M20.31,101.29c4.77.74,8.84-1,11.04-4.64,2.03-3.37,1.89-7.7-.38-10.81-2.48-3.39-6.21-4.62-10.66-3.91v19.36ZM13.76,107.93v-32.6c.2-.04.37-.1.54-.1,3.24,0,6.48-.07,9.72.04,7.81.26,14.62,6.85,15.24,14.63.71,8.82-4.86,16.3-13.58,17.76-2.98.5-6.09.2-9.15.26-.9.02-1.8,0-2.77,0"/>
      <path class="cls-1" d="M131.73,78.67c-1.17,1.9-2.26,3.69-3.41,5.56-1.07-.65-2.06-1.3-3.1-1.87-1.82-.99-3.74-1.42-5.77-.76-1.19.39-2.03,1.1-2.1,2.48-.06,1.22.54,2.24,1.86,2.8,1.03.44,2.12.74,3.19,1.1,2.86.97,5.55,2.26,7.54,4.61,2.43,2.87,3.13,6.12,1.63,9.66-1.55,3.62-4.28,5.89-8.25,6.26-5.71.53-10.55-1.44-14.68-5.62,1.58-1.5,3.12-2.95,4.66-4.41.85.64,1.6,1.27,2.4,1.81,1.96,1.34,4.18,1.83,6.52,1.79,1.68-.03,2.87-.97,3.41-2.58.4-1.18.02-2.43-1.44-3.32-1.56-.95-3.27-1.71-5.01-2.29-2.45-.84-4.74-1.87-6.42-3.92-3.25-3.99-3.07-12.18,4.94-14.68,3.64-1.13,7.13-.48,10.44,1.22,1.22.62,2.35,1.41,3.59,2.17"/>
      <rect class="cls-1" x="50.31" y="75.3" width="6.42" height="32.54"/>
      <path class="cls-1" d="M43.65,68.6c1.67-3.19,3.78-7.31,5.4-10.48,1.57-3.07,3.13-6.14,4.79-9.41.21.42.31.61.4.8,2.44,5.2,6.4,13.75,8.85,19.09h7.18s.08-.01.13-.01c-.24-.55-.38-.88-.53-1.21-4.81-10.19-9.63-20.38-14.42-30.58-.12-.26-.3-.62-.46-.99h-1.94c-.21.38-.39.76-.51.99-4.93,9.73-9.88,19.44-14.82,29.16-.42.82-.81,1.65-1.29,2.62.06,0,.12,0,.18,0h7.05Z"/>
      <path class="cls-1" d="M74.18,107.99c1.67-3.19,3.78-7.31,5.4-10.48,1.57-3.07,3.13-6.14,4.79-9.41.21.42.31.61.4.8,2.44,5.2,6.4,13.75,8.85,19.09h7.18s.08-.01.13-.01c-.24-.55-.38-.88-.53-1.21-4.81-10.19-9.63-20.38-14.42-30.58-.12-.26-.3-.62-.47-.99h-1.94c-.21.38-.39.76-.51.99-4.93,9.73-9.88,19.44-14.82,29.16-.42.82-.81,1.65-1.29,2.62.06,0,.12,0,.18,0h7.05Z"/>
      <path class="cls-1" d="M118.93,68.6c1.67-3.19,3.78-7.31,5.4-10.48,1.57-3.07,3.13-6.14,4.79-9.41.21.42.31.61.4.8,2.44,5.2,6.4,13.75,8.85,19.09h7.18s.08-.01.13-.01c-.24-.55-.38-.88-.53-1.21-4.81-10.19-9.63-20.38-14.42-30.58-.12-.26-.3-.62-.46-.99h-1.94c-.21.38-.39.76-.51.99-4.93,9.73-9.88,19.44-14.82,29.16-.42.82-.81,1.65-1.29,2.62.06,0,.12,0,.18,0h7.05Z"/>
      <path class="cls-1" d="M75.11,68.22c0,.13,0,.25,0,.38h6.58v-20.02c3.23,2.93,6.3,5.71,9.38,8.51,1.59-1.44,3.09-2.82,4.6-4.19,1.51-1.37,3.02-2.73,4.77-4.33v20.03h6.47v-32.78h-2.01c-.33.24-.62.48-.8.63-2.72,2.3-5.3,4.77-7.94,7.17-1.68,1.53-3.37,3.07-5.09,4.63-2.46-2.23-4.84-4.37-7.21-6.53-1.97-1.78-3.96-3.54-5.89-5.37-.2-.2-.4-.38-.59-.54h-2.25c-.02,9.64-.01,22.79-.01,32.4"/>
    </g>
  </g>
</svg>