<?xml version="1.0" encoding="UTF-8"?>
<svg id="Camada_2" data-name="Camada 2" xmlns="http://www.w3.org/2000/svg" viewBox="0 0 241.58 58.18">
  <defs>
    <style>
      .cls-1 {
        fill: #fff;
      }
    </style>
  </defs>
  <g id="Layer_1" data-name="Layer 1">
    <g>
      <path class="cls-1" d="M101.87,1.34c0,.88,0,1.5,0,2.13,0,11.41-.02,22.82.02,34.23,0,1.11-.23,1.49-1.39,1.43-2.13-.1-4.27-.1-6.41,0-1.14.05-1.32-.36-1.31-1.38.04-6.5.02-13,.02-19.48-.47-.24-.71.14-.98.31-3.11,1.96-6.23,3.91-9.3,5.93-.73.48-1.2.48-1.91,0-3.19-2.14-6.43-4.22-9.89-6.49,0,.71,0,1.19,0,1.66,0,6.05-.03,12.09.02,18.14,0,.99-.19,1.34-1.26,1.29-2.27-.09-4.54-.04-6.82-.01-.69,0-1.06-.09-1.06-.95.03-12.18.02-24.36.02-36.51.42-.26.64.06.88.22,5.91,3.81,11.85,7.59,17.71,11.48,1.14.76,1.89.68,2.98-.04,5.88-3.86,11.81-7.64,17.73-11.44.22-.14.46-.26.95-.53Z"/>
      <path class="cls-1" d="M160.55,30.84c2.43,0,4.65,0,6.86,0,3.5,0,7,.03,10.5-.01.92-.01,1.27.24,1.24,1.22-.07,2.04-.05,4.09,0,6.14.01.69-.17.92-.9.92-10.05-.04-20.1-.06-30.15-.06-.81,0-.99-.28-.95-1.01.06-.91.14-1.84,0-2.72-.56-3.28.85-5.57,3.1-7.85,5.01-5.08,9.76-10.4,14.62-15.63.37-.4.73-.8,1.08-1.19-.32-.46-.72-.26-1.05-.26-5.91-.02-11.82-.04-17.73,0-1,0-1.23-.28-1.09-1.22.38-2.47.71-4.94,1-7.42.08-.65.33-.8.94-.8,10.05.02,20.1.02,30.15,0,.78,0,.98.23.96.99-.06,2.45-.06,4.91-.02,7.37.01.8-.27,1.36-.78,1.92-5.7,6.24-11.38,12.5-17.07,18.76-.2.22-.38.46-.71.86Z"/>
      <path class="cls-1" d="M134.19,38.74c-3.17-6.12-6.33-12.23-9.55-18.44-.65.63-.89,1.4-1.26,2.1-2.71,5.18-5.44,10.36-8.1,15.57-.43.85-.91,1.16-1.87,1.14-2.63-.07-5.27-.06-7.9.02-1.15.03-1.3-.19-.74-1.21,4.76-8.76,9.48-17.55,14.22-26.32,1.72-3.19,3.44-6.38,5.16-9.58.1-.19.12-.45.54-.5,6.66,12.39,13.34,24.84,20.03,37.28-2.47.42-4.96.12-7.44.17-1.03.02-2.09.21-3.09-.22Z"/>
      <path class="cls-1" d="M229.13,0c4.3.04,8.19,1.33,11.7,3.83.92.65.94,1.03.09,1.79-1.49,1.32-2.87,2.78-4.27,4.21-.46.47-.78.52-1.38.15-4.23-2.6-9.02-2.39-12.88.49-3.46,2.58-5.21,7.38-4.21,11.51,1.13,4.65,4.75,7.97,9.56,8.68,2.66.39,5.16-.19,7.41-1.64.7-.45,1.07-.37,1.59.16,1.45,1.5,2.92,2.99,4.43,4.43.62.59.48.89-.15,1.34-6.15,4.38-12.81,5.34-19.7,2.27-6.92-3.09-10.9-8.63-11.47-16.27C209.01,9.56,217.95-.08,229.13,0Z"/>
      <path class="cls-1" d="M18.93,24.83c0,4.36-.03,8.72.02,13.09.01.95-.23,1.23-1.19,1.2-2.22-.07-4.45-.09-6.68,0-1.08.05-1.24-.35-1.24-1.32.04-8.63,0-17.27.06-25.9,0-1.2-.24-1.64-1.54-1.58-2.45.12-4.91,0-7.36.05-.77.01-1.01-.2-.99-.98.05-2.41.05-4.82,0-7.22-.01-.74.24-.91.93-.91,8.95.02,17.9.02,26.85,0,.79,0,1,.24.98,1-.04,2.36-.06,4.73,0,7.09.03.89-.3,1.05-1.09,1.03-2.54-.05-5.09.02-7.63-.04-.88-.02-1.16.22-1.15,1.13.05,4.45.02,8.91.02,13.36Z"/>
      <path class="cls-1" d="M44.86,39.1c-3.96,0-7.91-.03-11.87.02-.97.01-1.32-.15-1.31-1.24.06-6.82.06-13.64,0-20.46,0-1.11.33-1.35,1.38-1.34,7.05.04,14.1.03,21.15-.02,1.09,0,1.37.32,1.32,1.38-.09,1.91-.07,3.82,0,5.73.04.9-.24,1.14-1.12,1.13-4.09-.04-8.19.03-12.28-.05-1.18-.02-1.46.35-1.38,1.44.1,1.36.08,2.73,0,4.09-.06.97.27,1.22,1.22,1.22,4.96-.05,9.91,0,14.87-.05,1.06-.01,1.39.26,1.34,1.34-.1,1.86-.09,3.73,0,5.59.06,1.08-.35,1.27-1.32,1.25-4-.05-8-.02-12.01-.02Z"/>
      <path class="cls-1" d="M195.73,39.11c-4,0-8-.02-12,.02-.86,0-1.15-.19-1.15-1.11.04-6.95.04-13.91,0-20.86,0-.83.2-1.08,1.06-1.08,7.27.03,14.55.03,21.82,0,.83,0,.98.32.96,1.04-.04,2.04-.06,4.09,0,6.14.03.88-.29,1.04-1.09,1.03-4.14-.04-8.27.02-12.41-.04-1.02-.01-1.35.24-1.29,1.28.09,1.4.08,2.82,0,4.22-.06.96.26,1.24,1.21,1.23,4.95-.04,9.91.02,14.86-.03,1.08-.01,1.41.27,1.36,1.36-.09,1.86-.07,3.73,0,5.59.03.94-.23,1.25-1.2,1.24-4.04-.05-8.09-.02-12.14-.02Z"/>
      <path class="cls-1" d="M195.88,10.37c-4.04,0-8.09-.03-12.13.02-.88,0-1.16-.21-1.14-1.12.06-2.32.02-4.63-.02-6.95-.01-.7.07-1.05.92-1.05,8.18.03,16.36.04,24.54,0,.92,0,1.04.38,1.03,1.13-.02,2.32-.04,4.64.03,6.95.03.89-.31,1.04-1.1,1.04-4.04-.03-8.09-.02-12.13-.02Z"/>
      <path class="cls-1" d="M45.11,1.28c3.95,0,7.9.03,11.86-.02.93-.01,1.26.21,1.24,1.19-.05,2.32-.02,4.63.05,6.95.02.78-.21.99-.99.98-8.13-.03-16.26-.03-24.39,0-.83,0-1.1-.22-1.1-1.06.02-2.36,0-4.72-.08-7.08-.03-.8.27-.97,1.01-.97,4.13.03,8.27.01,12.4.01Z"/>
      <path class="cls-1" d="M159.99,51.07c-.66,1.23-1.32,2.46-1.97,3.7-.24.45-.44.85-1.09.85-.64,0-.84-.41-1.07-.86-.64-1.23-1.3-2.46-2.02-3.81-.36.43-.25.8-.26,1.12-.01,1.73,0,3.45-.01,5.18,0,.38-.01.74-.54.76-.56.02-.68-.29-.68-.77.01-2.68,0-5.36.01-8.04,0-.3-.08-.69.38-.74.52-.06.96.02,1.25.58.62,1.21,1.28,2.4,1.95,3.58.29.5.42,1.38.95,1.39.64,0,.75-.91,1.06-1.43.66-1.09,1.24-2.22,1.84-3.34.27-.52.58-.94,1.25-.81.77.15.49.77.49,1.21.02,2.45.02,4.9,0,7.36,0,.42.17.98-.56,1-.81.03-.66-.56-.67-1.04,0-1.94,0-3.88,0-5.82-.11-.02-.22-.04-.32-.06Z"/>
      <path class="cls-1" d="M105.48,54.41c1.03-1.86,1.95-3.52,2.85-5.18.28-.51.58-.93,1.25-.8.8.15.46.79.46,1.2.03,2.45.02,4.9.01,7.35,0,.42.16.99-.56,1-.72,0-.59-.55-.59-.98,0-1.98,0-3.95,0-5.93-.11-.03-.22-.07-.33-.1-.66,1.25-1.32,2.49-1.98,3.74-.23.43-.39.89-1.05.9-.69,0-.92-.42-1.18-.92-.63-1.23-1.29-2.45-2.25-3.6,0,1.92.01,3.83,0,5.75,0,.49.26,1.21-.68,1.15-.83-.05-.52-.73-.53-1.15-.03-2.41-.02-4.81,0-7.22,0-.44-.27-1.06.52-1.19.67-.11.97.3,1.24.82.89,1.67,1.81,3.32,2.81,5.17Z"/>
      <path class="cls-1" d="M56.85,49.59c0,2.51,0,4.9,0,7.3,0,.45.24,1.1-.59,1.1-.84,0-.59-.66-.59-1.1-.02-2.32-.05-4.64.03-6.95.02-.48-.47-1.33.42-1.48.88-.15,1.84-.2,2.37.84.85,1.65,1.74,3.29,2.61,4.93.23.43.46.85.83,1.51,0-2.29,0-4.3,0-6.3,0-.42-.19-.98.54-1.02.83-.04.65.58.65,1.04,0,2.32.03,4.64-.03,6.95-.01.53.48,1.35-.5,1.56-.94.21-1.08-.64-1.39-1.2-1.16-2.11-2.3-4.23-3.44-6.35-.16-.3-.23-.7-.92-.84Z"/>
      <path class="cls-1" d="M171.95,53.13c0-1.13.05-2.27-.02-3.4-.06-1.04.4-1.37,1.36-1.33.99.04,1.99,0,2.99.02,2.3.06,3.47,2.12,2.24,4.09-.32.52-.32.74-.01,1.24,1.26,2.1.05,4.22-2.36,4.25q-4.19.05-4.2-4.06c0-.27,0-.54,0-.82ZM175.31,53.67c-2.38,0-2.53.17-2.21,2.48.05.33.06.67.47.7,1.12.08,2.25.15,3.37-.04.44-.07.65-.43.74-.87.37-1.76-.16-2.28-2.37-2.28ZM175.23,49.54c-.45,0-.91,0-1.36,0-.49,0-.7.16-.77.7-.26,2.15-.12,2.35,1.98,2.35.41,0,.82-.01,1.23,0,1.09.05,1.41-.54,1.41-1.53,0-.97-.27-1.61-1.39-1.53-.36.03-.73,0-1.09,0Z"/>
      <path class="cls-1" d="M210.94,57.83c-.83.36-1.27.09-1.57-.63-.37-.88-.83-1.71-1.2-2.59-.26-.61-.61-.89-1.33-.9-1.85-.02-1.84-.06-1.84,1.83,0,.59-.01,1.18,0,1.77,0,.44-.15.68-.62.68-.41,0-.57-.22-.57-.59,0-2.72,0-5.44.03-8.16,0-.64.48-.82,1.03-.82,1.22,0,2.45-.03,3.67,0,.99.02,1.87.42,2.05,1.44.21,1.17.58,2.56-.7,3.34-.82.5-.77.88-.4,1.58.52.99.96,2.02,1.44,3.05ZM207.1,49.54c-.32,0-.63-.02-.95,0-.41.04-1.05-.21-1.09.45-.06.83-.3,1.72.17,2.5.21.34,3.66.2,3.94-.13.17-.2.28-.47.33-.72.31-1.69-.17-2.11-2.4-2.1Z"/>
      <path class="cls-1" d="M120.46,49.39c0,2.48,0,4.64,0,6.8,0,.36,0,.73,0,1.09,0,.41-.1.71-.59.72-.52,0-.57-.34-.57-.73,0-2.72,0-5.45,0-8.17,0-.34.04-.66.48-.66.85,0,1.77-.19,2.29.78.91,1.72,1.82,3.45,2.73,5.18.19.36.37.72.76,1.46,0-2.07,0-3.74,0-5.41,0-.36,0-.73,0-1.09,0-.46-.07-.96.64-.93.65.03.52.51.52.89,0,1.63,0,3.27,0,4.9,0,.86.03,1.73-.01,2.59-.02.43.31,1.05-.5,1.19-.7.12-.94-.34-1.21-.85-1.13-2.12-2.27-4.24-3.41-6.35-.23-.43-.41-.89-1.14-1.4Z"/>
      <path class="cls-1" d="M80.29,53.24c0,.18-.01.36,0,.55.35,4.91-1.52,4.38-5.55,4.15-1.14-.07-1.65-1.08-1.68-2.18-.05-1.73-.06-3.46,0-5.18.05-1.32.83-2.06,2.15-2.2.05,0,.09-.01.14-.01,4.37-.07,5.17-.22,4.94,4.87ZM79.07,53.18h0c0-.82,0-1.63,0-2.45,0-.53-.11-1.08-.69-1.19-1.11-.22-2.25-.2-3.37,0-.59.11-.73.63-.73,1.16,0,1.68,0,3.36,0,5.03,0,.85.47,1.17,1.29,1.23,3.46.24,3.5.21,3.5-3.24,0-.18,0-.36,0-.54Z"/>
      <path class="cls-1" d="M23.79,53.17c0-1.22.02-2.45,0-3.67-.02-.75.33-1.08,1.06-1.08,1.27,0,2.54-.02,3.81.03,1.28.06,2.04.8,2.09,2.07.07,1.81.07,3.63-.02,5.44-.06,1.19-.8,1.94-2.01,2.01-1.31.08-2.63.04-3.94.03-.76,0-1-.46-.99-1.16.02-1.22,0-2.45,0-3.67h0ZM24.94,53.12c0,.95,0,1.9,0,2.85,0,.41-.04.9.54.91,1.08.03,2.17.04,3.25-.05.53-.05.82-.51.82-1.09,0-1.68,0-3.35,0-5.03,0-.6-.21-1.12-.9-1.14-1.17-.04-2.52-.43-3.45.16-.7.44-.16,1.77-.25,2.71-.02.22,0,.45,0,.68Z"/>
      <path class="cls-1" d="M163.1,53.22c0-.91-.03-1.81,0-2.72.04-1.01.56-1.8,1.54-2,1.37-.29,2.8-.29,4.18.01,1.01.22,1.47,1.04,1.49,2.03.04,1.77.02,3.53.01,5.3,0,.22-.04.45-.11.66-.48,1.47-2.15,1.96-5.15,1.53-1.24-.18-1.91-.97-1.97-2.37-.03-.81,0-1.63,0-2.45,0,0,0,0,0,0ZM164.31,53.26c.04,4.03-.56,3.68,3.45,3.69.05,0,.09,0,.14,0,.84,0,1.26-.45,1.26-1.27,0-1.64,0-3.27,0-4.91,0-.89-.48-1.33-1.37-1.34-3.93-.04-3.46-.15-3.47,3.15,0,.23,0,.45,0,.68Z"/>
      <path class="cls-1" d="M222.47,53.2c0,.77,0,1.54,0,2.31,0,.27.01.55-.05.81-.33,1.49-1.62,1.94-4.88,1.73-1.35-.09-2.19-.78-2.25-2.07-.08-1.81-.08-3.62-.02-5.43.04-1.35.9-2.13,2.28-2.19.86-.04,1.72-.03,2.58,0,1.55.07,2.29.83,2.35,2.4.03.81,0,1.63,0,2.44,0,0,0,0-.01,0ZM216.46,53.24c0,.81,0,1.63,0,2.44,0,.84.43,1.38,1.23,1.24,1.21-.22,2.78.87,3.59-.9.04-.08.03-.18.03-.27,0-1.67.01-3.35,0-5.02,0-.72-.33-1.18-1.1-1.3-3.22-.5-3.74-.08-3.75,3.13,0,.23,0,.45,0,.68Z"/>
      <path class="cls-1" d="M42.48,58c-.64,0-1.27,0-1.91,0-.43,0-.85,0-.82-.61.03-.53.43-.51.79-.51,1.23,0,2.45,0,3.68,0,.71,0,1.27-.18,1.34-1,.06-.74.1-1.42-.91-1.68-1.23-.31-2.4-.84-3.63-1.16-1.51-.39-1.27-1.53-1.27-2.61,0-1.08.57-1.81,1.57-1.91,1.53-.15,3.08-.08,4.62-.11.42,0,.53.23.51.62-.02.45-.32.49-.66.49-1.14,0-2.27.01-3.41.01-.74,0-1.36.12-1.43,1.06-.06.8.02,1.38.98,1.62,1.14.28,2.22.83,3.37,1.07,1.69.37,1.49,1.6,1.4,2.76-.09,1.22-.85,1.87-2.05,1.94-.72.04-1.45,0-2.18,0h0Z"/>
      <path class="cls-1" d="M32.28,53.14c0-.86-.04-1.73,0-2.59.07-1.28.79-2.04,2.05-2.12,1.22-.09,2.45-.02,3.68-.03.4,0,.75.09.73.58-.01.49-.36.55-.76.55-1.09,0-2.18-.01-3.27,0-1.52.03-1.13,1.18-1.24,2.08-.12,1.03.47,1.06,1.23,1.03.95-.04,1.91-.01,2.86-.01.4,0,.73.07.69.59-.03.43-.33.49-.67.5-.95,0-1.91.03-2.86,0-.76-.02-1.36.04-1.27,1.06.08.92-.23,2.04,1.25,2.09,1.04.03,2.09,0,3.13.01.39,0,.87-.09.88.55.01.63-.44.57-.85.57-1.09,0-2.18.03-3.27,0-1.55-.06-2.3-.84-2.33-2.4-.02-.82,0-1.63,0-2.45Z"/>
      <path class="cls-1" d="M111.55,53.19c0-.86-.05-1.73.01-2.59.1-1.38.81-2.09,2.16-2.16,1.18-.06,2.36-.03,3.55-.03.39,0,.73.03.72.57-.02.52-.36.56-.75.56-1.05,0-2.09.01-3.14,0-1.6-.02-1.26,1.16-1.37,2.12-.13,1.22.66,1.01,1.37,1,.91-.01,1.82,0,2.73,0,.39,0,.73.03.73.56,0,.54-.38.53-.75.53-.95,0-1.91.02-2.86,0-.68-.01-1.32-.05-1.19.94.11.87-.39,2.08,1.12,2.19,1.09.07,2.18.01,3.27.02.4,0,.87-.07.85.57-.02.6-.45.58-.88.57-1.05,0-2.09.01-3.14-.02-1.62-.06-2.38-.83-2.44-2.48-.03-.77,0-1.55,0-2.32,0,0,.01,0,.02,0Z"/>
      <path class="cls-1" d="M198.31,48.45c.78-.15,1.14.15,1.37.84.87,2.58,1.79,5.14,2.68,7.71.11.32.52.78-.14.98-.48.14-.85-.12-.9-.58-.24-2.12-1.67-2.08-3.31-2.08-1.56,0-2.75.14-2.96,1.99-.06.52-.43.85-.96.69-.78-.24-.21-.76-.1-1.09.81-2.41,1.71-4.78,2.51-7.19.32-.98.83-1.49,1.82-1.26ZM198.19,54.26q2.01-.01,1.35-1.88c-.23-.64-.43-1.29-.67-1.93-.14-.35-.12-.87-.68-.89-.64-.02-.63.55-.78.95-.23.59-.42,1.2-.63,1.8q-.67,1.96,1.42,1.95Z"/>
      <path class="cls-1" d="M135.65,53.2c0-.73,0-1.45,0-2.18,0-.32,0-.64.05-.95.3-1.48,1.43-1.88,4.76-1.71,1.38.07,2.28.75,2.33,1.99.08,1.9.11,3.82,0,5.72-.1,1.68-1.3,2.12-4.78,1.98-1.47-.06-2.29-.83-2.34-2.26-.03-.86,0-1.73,0-2.59h0ZM141.67,53.3c0-.81,0-1.63,0-2.44,0-.78-.28-1.43-1.13-1.37-1.23.09-2.65-.67-3.64.67-.09.13-.08.35-.08.53,0,1.67,0,3.35-.01,5.02,0,.84.43,1.26,1.25,1.25,3.82-.05,3.63.47,3.6-3.25,0-.14,0-.27,0-.41Z"/>
      <path class="cls-1" d="M48.08,53.11c0-.82-.02-1.64,0-2.45.05-1.34.75-2.12,2.08-2.21,1.18-.07,2.36-.03,3.54-.04.43,0,.85.01.81.62-.03.52-.41.51-.79.51-1.04,0-2.09.01-3.13,0-1.58-.02-1.28,1.13-1.38,2.11-.13,1.25.7.99,1.39.99.86,0,1.73,0,2.59,0,.4,0,.89-.06.87.56-.02.61-.52.52-.91.53-.86,0-1.73.03-2.59,0-.81-.03-1.43.01-1.34,1.11.07.96-.13,2.02,1.31,2.05,1.04.02,2.09,0,3.13,0,.41,0,.86-.05.85.57,0,.63-.46.55-.87.55-1.09,0-2.18.04-3.27-.01-1.56-.08-2.27-.86-2.31-2.43-.02-.82,0-1.63,0-2.45,0,0,0,0,.01,0Z"/>
      <path class="cls-1" d="M92.75,56.3c.83-2.39,1.55-4.49,2.28-6.59.12-.34.21-.71.39-1.01.22-.38.65-.34.98-.24.39.11.2.43.11.67-.96,2.74-1.93,5.49-2.88,8.23-.16.45-.43.63-.91.65-.59.02-.77-.33-.93-.79-.92-2.62-1.85-5.22-2.76-7.84-.1-.28-.53-.71.02-.92.5-.19.93-.03,1.14.61.58,1.77,1.21,3.52,1.83,5.27.2.55.4,1.11.72,1.96Z"/>
      <path class="cls-1" d="M68.2,56.28c.8-2.31,1.52-4.37,2.23-6.42.13-.39.24-.79.43-1.14.21-.39.64-.37.97-.26.48.16.17.53.08.79-.94,2.7-1.89,5.4-2.84,8.1-.15.44-.41.65-.89.68-.57.03-.79-.27-.96-.76-.89-2.57-1.82-5.13-2.69-7.72-.11-.32-.72-.84.06-1.1.57-.19.89.13,1.08.71.68,2.07,1.42,4.12,2.14,6.18.07.21.17.42.38.94Z"/>
      <path class="cls-1" d="M130.58,53.83c0-.59.01-1.18,0-1.77-.02-.76.18-1.67-.16-2.25-.36-.62-1.33-.21-2.03-.26-.45-.03-.68-.18-.66-.64.01-.44.3-.5.65-.5,1.9,0,3.81,0,5.71,0,.37,0,.62.12.6.54-.01.37-.18.53-.57.6-.75.13-1.8-.49-2.2.4-.31.68-.08,1.6-.08,2.42,0,1.59,0,3.17,0,4.76,0,.4.06.85-.56.88-.68.03-.69-.43-.68-.91,0-1.09,0-2.17,0-3.26h.01Z"/>
      <path class="cls-1" d="M183.48,52.56c0-1.09,0-2.18,0-3.27,0-.41-.06-.84.57-.86.72-.03.65.46.65.92,0,2,.04,4-.01,6-.03,1.2.51,1.63,1.65,1.57.91-.05,1.82-.02,2.72-.03.4,0,.74.07.75.57.01.51-.32.57-.73.57-1.14,0-2.27.06-3.41-.01-1.42-.09-2.15-.96-2.2-2.44,0-.05,0-.09,0-.14,0-.95,0-1.91,0-2.86,0,0,0,0,.01,0Z"/>
      <path class="cls-1" d="M81.84,52.37c0-1.04,0-2.09,0-3.13,0-.44,0-.83.6-.83.6,0,.61.39.61.83,0,2,.04,3.99-.02,5.99-.04,1.26.5,1.73,1.7,1.66.86-.05,1.72-.01,2.59,0,.4,0,.86-.05.85.58-.01.54-.4.52-.77.52-1.13,0-2.27.06-3.4,0-1.31-.08-2.09-.95-2.15-2.35-.04-1.09,0-2.18,0-3.27Z"/>
      <path class="cls-1" d="M180.56,53.16c0-1.31,0-2.62,0-3.94,0-.45.05-.8.63-.81.62,0,.6.39.6.82,0,2.62,0,5.25.02,7.87,0,.49-.04.93-.7.89-.62-.04-.53-.51-.53-.9,0-1.31,0-2.62,0-3.94,0,0,0,0-.01,0Z"/>
      <path class="cls-1" d="M149.48,53.05c0-1.22,0-2.44,0-3.66,0-.43-.14-.97.58-.98.68,0,.63.48.63.95,0,2.58,0,5.16,0,7.74,0,.46.04.94-.66.91-.63-.03-.55-.48-.55-.88,0-1.36,0-2.71,0-4.07,0,0,0,0,0,0Z"/>
      <path class="cls-1" d="M192.31,53.28c0,1.27,0,2.54,0,3.82,0,.4.08.85-.56.88-.72.04-.65-.46-.65-.91,0-2.59,0-5.18,0-7.77,0-.42-.05-.85.56-.88.71-.04.66.45.66.91,0,1.32,0,2.63,0,3.95h0Z"/>
      <path class="cls-1" d="M212.39,53.09c0-1.27,0-2.54,0-3.82,0-.44.02-.84.6-.86.61-.03.61.39.61.82,0,2.63,0,5.27.01,7.9,0,.41.03.84-.59.85-.6,0-.63-.37-.62-.82,0-1.36,0-2.73,0-4.09Z"/>
      <path class="cls-1" d="M99.1,53.18c0,1.32,0,2.64,0,3.95,0,.41.06.86-.57.86-.57,0-.66-.37-.66-.82,0-2.64,0-5.27.02-7.9,0-.4-.06-.85.58-.85.71,0,.63.49.63.94,0,1.27,0,2.54,0,3.82h0Z"/>
      <path class="cls-1" d="M134.19,38.74c1,.43,2.06.24,3.09.22,2.48-.06,4.97.25,7.44-.17.13.46-.2.4-.46.4-3.07,0-6.14,0-9.22,0-.36,0-.75.04-.85-.45Z"/>
      <path class="cls-1" d="M197.75,47.6c.23-.79.56-1.33,1.44-1.15.19.04.34.17.24.38-.32.68-.78,1.1-1.68.77Z"/>
    </g>
  </g>
</svg>